<svg width="13" height="12" viewBox="0 0 13 12" fill="none" xmlns="http://www.w3.org/2000/svg">
<g clip-path="url(#clip0_192_865)">
<path d="M12.0444 4.62324C12.003 4.49595 11.893 4.40318 11.7606 4.38397L8.04054 3.84338L6.37684 0.472449C6.31763 0.35245 6.19541 0.276489 6.0616 0.276489C5.92778 0.276489 5.80557 0.35245 5.74635 0.472449L4.08257 3.84338L0.362588 4.38397C0.23019 4.40318 0.120151 4.49595 0.0788079 4.62321C0.0374409 4.7505 0.0719407 4.89021 0.167776 4.98361L2.85952 7.60752L2.22417 11.3126C2.20153 11.4445 2.25577 11.5778 2.36403 11.6564C2.42527 11.7009 2.49781 11.7236 2.5707 11.7236C2.62666 11.7236 2.68282 11.7102 2.73424 11.6832L6.06158 9.93385L9.38878 11.6831C9.50726 11.7454 9.65076 11.7351 9.75902 11.6564C9.86728 11.5778 9.92153 11.4444 9.89892 11.3125L9.26336 7.60752L11.9554 4.98359C12.0512 4.89021 12.0857 4.7505 12.0444 4.62324Z" fill="#FFD600"/>
</g>
<defs>
<clipPath id="clip0_192_865">
<rect width="12" height="12" fill="white" transform="translate(0.0615234)"/>
</clipPath>
</defs>
</svg>
